# xmcd
#
# Track frame offsets:
#	150
#	18450
#	32700
#	55425
#	71700
#	89100
#	105825
#	119175
#	137175
#	158175
#	176025
#	193875
#	210300
#	227475
#	244200
#	257775
#
# Disc length: 3457 seconds
#
# Revision: 1
# Processed by: cddbd v1.5.2PL0 Copyright (c) Steve Scherf et al.
# Submitted via: audiograbber 1.83.01
#
DISCID=ee0d7f10
DTITLE=Big Country - BCY-014
DYEAR=1900
DGENRE=Karaoke
TTITLE0=Carrie Underwood - Last Name
TTITLE1=Toby Keith - She's A Hottie
TTITLE2=Taylor Swift - Umbrella/Irreplaceable (SoHo Mix)
TTITLE3=Taylor Swift - Mary's Song
TTITLE4=Jewel - Stronger Woman
TTITLE5=Trace Adkins - You're Gonna Miss This
TTITLE6=Miranda Lambert - Gunpower and Lead
TTITLE7=Brad Paisley - I'm Still A Guy
TTITLE8=Alan Jackson - Small Town Southern Man
TTITLE9=James Otto - Just Got Started Lovin' You
TTITLE10=Sara Evans - Some Things Never Change
TTITLE11=LeAnn Rimes - Good Friend And A Glass Of Wine
TTITLE12=Rodney Atkins - Cleaning This Gun
TTITLE13=Craig Morgan - International Harvester
TTITLE14=Chris Cagle - What Kinda Gone
TTITLE15=lll - i don't know what this is.
EXTD=
EXTT0=
EXTT1=
EXTT2=
EXTT3=
EXTT4=
EXTT5=
EXTT6=
EXTT7=
EXTT8=
EXTT9=
EXTT10=
EXTT11=
EXTT12=
EXTT13=
EXTT14=
EXTT15=
PLAYORDER=
